<svg width="32" height="31" viewBox="0 0 32 31" fill="none" xmlns="http://www.w3.org/2000/svg">
<path d="M28.7563 19.4543C28.3277 19.4543 27.9803 19.8016 27.9803 20.2302V27.1199C27.9788 28.4051 26.9376 29.4466 25.6525 29.4478H3.8798C2.59462 29.4466 1.55344 28.4051 1.55192 27.1199V6.89918C1.55344 5.6143 2.59462 4.57281 3.8798 4.5713H10.7695C11.1981 4.5713 11.5454 4.22394 11.5454 3.79534C11.5454 3.36705 11.1981 3.01938 10.7695 3.01938H3.8798C1.73803 3.0218 0.00242488 4.75741 0 6.89918V27.1202C0.00242488 29.262 1.73803 30.9976 3.8798 31H25.6525C27.7942 30.9976 29.5298 29.262 29.5323 27.1202V20.2302C29.5323 19.8016 29.1849 19.4543 28.7563 19.4543Z" fill="#D5AC5F"/>
<path d="M29.2248 1.02277C27.8611 -0.340922 25.6503 -0.340922 24.2866 1.02277L10.443 14.8664C10.3481 14.9613 10.2796 15.0789 10.2438 15.208L8.42334 21.7803C8.34847 22.0498 8.42455 22.3383 8.62217 22.5363C8.82011 22.7339 9.10867 22.81 9.37813 22.7354L15.9505 20.9146C16.0796 20.8789 16.1972 20.8104 16.2921 20.7155L30.1354 6.87157C31.4969 5.50697 31.4969 3.29791 30.1354 1.93331L29.2248 1.02277ZM12.1337 15.3708L23.4636 4.04053L27.1176 7.69451L15.7874 19.0247L12.1337 15.3708ZM11.4038 16.8354L14.3231 19.7549L10.285 20.8737L11.4038 16.8354ZM29.0381 5.77431L28.2152 6.59725L24.5609 2.94297L25.3841 2.12002C26.1416 1.36255 27.3698 1.36255 28.1273 2.12002L29.0381 3.03056C29.7944 3.78894 29.7944 5.01623 29.0381 5.77431Z" fill="#D5AC5F"/>
</svg>
