<svg width="85" height="85" viewBox="0 0 85 85" fill="none" xmlns="http://www.w3.org/2000/svg">
<g clip-path="url(#clip0)" filter="url(#filter0_d)">
<path d="M42.5398 65.0796C54.9882 65.0796 65.0796 54.9882 65.0796 42.5398C65.0796 30.0914 54.9882 20 42.5398 20C30.0914 20 20 30.0914 20 42.5398C20 54.9882 30.0914 65.0796 42.5398 65.0796Z" fill="#D5AC5F"/>
<path d="M47.5576 42.4601C47.5576 42.5398 47.478 42.6991 47.3983 42.6991L38.0001 49.2301C37.9204 49.2301 37.8408 49.3097 37.8408 49.3097C37.7612 49.3097 37.7612 49.3097 37.6815 49.3097C37.6019 49.2301 37.5222 49.1504 37.5222 48.9911V36.0088C37.5222 35.8495 37.6019 35.7699 37.6815 35.6902C37.7612 35.6106 37.9204 35.6106 38.0001 35.6902L47.3983 42.2212C47.478 42.3008 47.5576 42.3805 47.5576 42.4601Z" fill="white"/>
</g>
<defs>
<filter id="filter0_d" x="0" y="0" width="85" height="85" filterUnits="userSpaceOnUse" color-interpolation-filters="sRGB">
<feFlood flood-opacity="0" result="BackgroundImageFix"/>
<feColorMatrix in="SourceAlpha" type="matrix" values="0 0 0 0 0 0 0 0 0 0 0 0 0 0 0 0 0 0 127 0"/>
<feOffset/>
<feGaussianBlur stdDeviation="10"/>
<feColorMatrix type="matrix" values="0 0 0 0 0 0 0 0 0 0 0 0 0 0 0 0 0 0 0.25 0"/>
<feBlend mode="normal" in2="BackgroundImageFix" result="effect1_dropShadow"/>
<feBlend mode="normal" in="SourceGraphic" in2="effect1_dropShadow" result="shape"/>
</filter>
<clipPath id="clip0">
<rect width="45" height="45" fill="white" transform="translate(20 20)"/>
</clipPath>
</defs>
</svg>
