<svg width="119" height="10" viewBox="0 0 119 10" fill="none" xmlns="http://www.w3.org/2000/svg">
<path d="M118.095 0.0541992H107.758V1.67512H118.095V0.0541992Z" fill="#D5AC5F"/>
<path d="M52.1865 3.4135C52.1865 4.42275 51.8195 5.2485 51.0549 5.89075C50.3515 6.47184 49.4951 6.77768 48.4553 6.77768H44.3571V5.15675H48.7305C49.281 5.15675 49.7092 5.00383 50.0762 4.66742C50.4432 4.36158 50.6267 3.93342 50.6267 3.4135C50.6267 2.89358 50.4432 2.46541 50.0762 2.15957C49.7092 1.85374 49.2504 1.70082 48.7305 1.70082H43.409V9.37727H41.7881V0.0493164H48.4553C49.4951 0.0493164 50.382 0.355149 51.0549 0.936235C51.8195 1.5479 52.1865 2.37366 52.1865 3.4135Z" fill="#D5AC5F"/>
<path d="M71.087 9.381H68.7015L66.1019 6.75082H62.5848V5.1299H66.9582C67.5699 5.1299 68.0592 5.00756 68.4568 4.73231C68.9156 4.42648 69.1602 3.96773 69.1602 3.41723C69.1602 2.25506 68.4262 1.67397 66.9582 1.67397H61.6367V9.35042H60.0158V0.0224609H66.683C67.8757 0.0224609 68.8544 0.267129 69.5884 0.787048C70.4447 1.36813 70.8423 2.25505 70.8423 3.38664C70.8423 4.18181 70.5977 4.85465 70.1083 5.40515C69.6496 5.92507 69.0379 6.29207 68.2427 6.50615L71.087 9.381Z" fill="#D5AC5F"/>
<path d="M81.3027 9.37727H79.6817V0.0493164H81.3027V9.37727Z" fill="#D5AC5F"/>
<path d="M100.264 6.50407C100.264 7.39099 99.9582 8.09441 99.3159 8.64491C98.7042 9.13425 97.9702 9.4095 97.0527 9.4095H89.9574V7.78857H97.0527C97.5115 7.78857 97.8785 7.69682 98.2149 7.48274C98.5819 7.23807 98.7654 6.90166 98.7654 6.47349C98.7654 6.04532 98.5819 5.73948 98.1843 5.49481C97.8785 5.31131 97.4809 5.21956 97.0527 5.21956H92.6487C91.8535 5.21956 91.1501 5.00548 90.6302 4.54673C90.0491 4.05739 89.7433 3.41514 89.7433 2.65056C89.7433 1.85539 90.0491 1.24371 90.6302 0.754378C91.1807 0.295626 91.8535 0.081543 92.6487 0.081543H99.8053V1.70247H92.6487C92.3429 1.70247 92.0676 1.79422 91.8536 1.94714C91.6395 2.13064 91.5171 2.34472 91.5171 2.65056C91.5171 2.95639 91.6395 3.17047 91.8536 3.35397C92.0676 3.50689 92.3429 3.59864 92.6487 3.59864H97.0527C97.9397 3.59864 98.7042 3.84331 99.3159 4.36323C99.9582 4.88315 100.264 5.61715 100.264 6.50407Z" fill="#D5AC5F"/>
<path d="M118.125 5.18422V3.53271H107.757V3.5633V5.18422V6.40756C107.757 8.05907 109.102 9.37416 110.723 9.37416H118.125V7.72265H110.723C109.898 7.72265 109.225 7.04981 109.225 6.22406V5.18422H118.125Z" fill="#D5AC5F"/>
<path d="M8.08543 0.967308C8.02426 0.875558 7.93251 0.753224 7.87135 0.661474C7.65726 0.325056 7.25968 0.0498047 6.80093 0.0498047C6.28101 0.0498047 5.91401 0.355636 5.69992 0.75322C5.66934 0.844971 5.547 0.967308 5.547 0.967308L0.500732 9.37776H2.58041L6.77034 2.4659L8.39127 5.15724H6.25042L5.27175 6.77816H9.36994L10.9297 9.37776H13.04L8.08543 0.967308Z" fill="#D5AC5F"/>
<path d="M32.124 0.0522461C31.6958 0.0828295 31.3594 0.296912 31.1453 0.63333L26.986 7.17819L22.796 0.602745C22.796 0.602745 22.7655 0.572162 22.7655 0.541579C22.5514 0.235744 22.1844 0.0522461 21.7868 0.0522461C21.7562 0.0522461 21.7256 0.0522461 21.7256 0.0522461H20.594V9.3802H22.1844V2.59067L25.9461 8.49328C26.1908 8.86028 26.5578 9.10495 27.0166 9.10495C27.5059 9.10495 27.8729 8.8297 28.1176 8.43211L31.7876 2.65184V9.41078H33.3779V0.0828268H32.124V0.0522461Z" fill="#D5AC5F"/>
</svg>
