<svg width="21" height="20" viewBox="0 0 21 20" fill="none" xmlns="http://www.w3.org/2000/svg">
<path d="M10.3125 0C4.61679 0 0 4.309 0 9.625C0 14.941 4.61679 19.25 10.3125 19.25C16.0082 19.25 20.625 14.941 20.625 9.625C20.625 4.309 16.0082 0 10.3125 0ZM13.1227 13.5593L14.8038 16.1588L14.8289 16.2056C13.5242 16.9784 11.9685 17.4468 10.3125 17.4468C8.60629 17.4468 7.02554 16.9784 5.7208 16.1588L10.2874 9.15663L12.0438 11.8732H9.60994L8.50593 13.5359H13.1227V13.5593ZM11.7176 7.58759C11.6423 7.4705 11.5671 7.37683 11.4918 7.28315C11.2409 6.93187 10.8394 6.65085 10.3125 6.65085C9.76049 6.65085 9.33394 6.97871 9.08303 7.37682C9.03285 7.44708 8.90739 7.61101 8.90739 7.61101L4.16514 14.9878C2.76003 13.5827 1.90693 11.7092 1.90693 9.64842C1.90693 5.33942 5.67062 1.82664 10.2874 1.82664C14.9042 1.82664 18.6679 5.33942 18.6679 9.64842C18.6679 11.7327 17.7897 13.653 16.3344 15.0581L11.7176 7.58759Z" fill="#D5AC5F"/>
</svg>
